<?xml version="1.0" encoding="UTF-8"?>
<svg xmlns="http://www.w3.org/2000/svg" version="1.1" viewBox="0 0 1080 1080">
  <!-- Generator: Adobe Illustrator 28.7.1, SVG Export Plug-In . SVG Version: 1.2.0 Build 142)  -->
  <g>
    <g id="Layer_1">
      <g id="brand">
        <path d="M513.3,850.2s13.6,29.1,27.8,27.8c0,0,9.7,1.9,25.9-25.9l111.8,26.5s7.8-15.5-1.3-31l-89.9-83.4,1.9-170,272.2,58.8s11,1.4,13.7-14.8c0,0,4.1-19.6-17-29.1l-270.2-174.1v-158.8s-10.2-72.8-48.8-75c0,0-44.4,10.9-47.3,91l-1.5,141.3-279,184.3s-18.2,19.7,2.2,35.7l278-59.9-.4,168.8-88.9,87s-7.3,20.4,1.5,27.7l109.3-27Z"/>
        <g>
          <path d="M161.2,196.1"/>
          <path d="M538.7,1068.8c-209.2,0-399.1-123.6-483.8-315-4-9.1,0-19.8,9.2-23.8,9.1-4,19.8,0,23.8,9.2,78.9,178.3,255.8,293.5,450.8,293.5s492.7-221,492.7-492.7S810.4,47.3,538.7,47.3s-271,58.6-364.2,160.9c-5.2,5.7-13.4,7.5-20.4,4.4-7.1-3-11.4-10.2-10.9-17.8l9.2-133.1c.7-9.9,9.3-17.4,19.2-16.7,9.9.7,17.4,9.3,16.7,19.2l-5.9,85C279.4,61,406.7,11.2,538.7,11.2c291.6,0,528.8,237.2,528.8,528.8s-237.2,528.8-528.8,528.8Z"/>
          <path d="M64.8,748.7c-7.1,0-13.9-4.3-16.7-11.3-18.6-46.2-30.5-94.9-35.5-144.6-1-9.9,6.3-18.7,16.2-19.7,9.9-1,18.7,6.3,19.7,16.2,4.6,46.3,15.7,91.6,33,134.7,3.7,9.2-.8,19.7-10,23.5-2.2.9-4.5,1.3-6.7,1.3ZM36.4,465.3c-1.1,0-2.2,0-3.3-.3-9.8-1.8-16.3-11.2-14.5-21,9-49.1,24.9-96.6,47.3-141.2,4.5-8.9,15.3-12.5,24.2-8,8.9,4.5,12.5,15.3,8,24.2-20.9,41.5-35.7,85.8-44.1,131.5-1.6,8.7-9.2,14.8-17.7,14.8Z"/>
          <path d="M289.8,214.1h-128.6c-10,0-18-8.1-18-18s8.1-18,18-18h128.6c10,0,18,8.1,18,18s-8.1,18-18,18Z"/>
        </g>
      </g>
    </g>
  </g>
</svg>