<?xml version="1.0" encoding="UTF-8"?>
<svg xmlns="http://www.w3.org/2000/svg" version="1.1" viewBox="0 0 2500 585">
  <defs>
    <style>
      .cls-1 {
        fill: #fff;
      }

      .cls-2 {
        fill: #f5f5f5;
      }
    </style>
  </defs>
  <!-- Generator: Adobe Illustrator 28.7.1, SVG Export Plug-In . SVG Version: 1.2.0 Build 142)  -->
  <g>
    <g id="version">
      <g>
        <path class="cls-2" d="M2458.1,477.6h-58.8c-7.7,0-14,6.3-14,14v8.9c0,7.7,6.3,14,14,14h58.8c7.7,0,14-6.3,14-14v-8.9c0-7.7-6.3-14-14-14ZM2413.9,503.7c-1,.9-2.4,1.4-4,1.4s-3-.5-4.1-1.3c-1-.9-1.6-2.1-1.6-3.6h2.3c0,.9.3,1.7.9,2.2.6.6,1.4.8,2.4.8s1.9-.3,2.5-.9c.6-.6.9-1.4.9-2.4s-.3-1.8-.9-2.4-1.5-.8-2.7-.9h-1.7v-1.8h1.7c1.1,0,1.9-.3,2.5-.8s.9-1.3.9-2.2c0-2.1-1-3.1-3.1-3.1s-1.7.3-2.3.8-.9,1.3-.9,2.2h-2.2c0-1.4.5-2.6,1.5-3.5,1-.9,2.3-1.4,3.9-1.4s3,.4,3.9,1.3c.9.9,1.4,2.1,1.4,3.7s-.2,1.5-.7,2.2c-.5.7-1.2,1.3-2,1.6,1,.3,1.7.8,2.3,1.5.5.7.8,1.6.8,2.6,0,1.6-.5,2.8-1.6,3.8ZM2421.3,504.6c-.2.3-.6.4-1.1.4s-.8-.1-1-.4c-.2-.3-.3-.6-.3-.9s.1-.7.3-1c.2-.3.6-.4,1-.4s.8.1,1.1.4c.2.3.4.6.4,1s-.1.7-.4.9ZM2436.2,497.3c0,2.6-.4,4.6-1.3,5.9-.9,1.3-2.3,1.9-4.2,1.9s-3.3-.6-4.2-1.9c-.9-1.3-1.4-3.1-1.4-5.6v-3c0-2.6.4-4.5,1.3-5.8s2.3-1.9,4.2-1.9,3.3.6,4.2,1.8c.9,1.2,1.4,3.1,1.4,5.6v2.9ZM2441.8,504.6c-.2.3-.6.4-1.1.4s-.8-.1-1-.4c-.2-.3-.3-.6-.3-.9s.1-.7.3-1c.2-.3.6-.4,1-.4s.8.1,1.1.4c.2.3.4.6.4,1s-.1.7-.4.9ZM2453,504.8h-2.3v-15l-4.5,1.7v-2l6.4-2.4h.4v17.8Z"/>
        <path class="cls-2" d="M2430.6,488.8c-1.2,0-2,.4-2.5,1.3-.5.9-.8,2.2-.8,4v3.6c0,1.9.3,3.3.8,4.2.6.9,1.4,1.4,2.5,1.4s1.9-.4,2.5-1.3c.5-.9.8-2.2.8-4.1v-3.7c0-1.9-.3-3.3-.8-4.2-.5-.9-1.4-1.3-2.5-1.3Z"/>
      </g>
    </g>
    <g id="_x22_Design_System_x22_">
      <g>
        <path class="cls-1" d="M1693.8,512.8v-35h9.8c2.9,0,5.4.7,7.7,2s4,3.2,5.3,5.6c1.3,2.4,1.9,5.2,1.9,8.3v3.2c0,3.1-.6,5.9-1.9,8.3-1.3,2.4-3,4.3-5.3,5.6-2.3,1.3-4.9,2-7.9,2h-9.6ZM1696.7,480.3v30h6.6c3.7,0,6.6-1.2,8.9-3.7s3.3-5.8,3.3-9.9v-3.1c0-4-1.1-7.2-3.3-9.7-2.2-2.4-5.1-3.6-8.7-3.7h-6.9Z"/>
        <path class="cls-1" d="M1769.9,496h-16.4v14.3h18.8v2.5h-21.8v-35h21.6v2.5h-18.7v13.2h16.4v2.5Z"/>
        <path class="cls-1" d="M1823,504.2c0-1.9-.7-3.5-2-4.6-1.4-1.1-3.9-2.2-7.5-3.2-3.6-1-6.3-2.1-7.9-3.3-2.4-1.7-3.6-3.9-3.6-6.7s1.1-4.8,3.3-6.5,5-2.5,8.4-2.5,4.4.4,6.2,1.3c1.8.9,3.3,2.1,4.3,3.7s1.5,3.4,1.5,5.4h-3c0-2.4-.8-4.3-2.5-5.8-1.6-1.5-3.8-2.2-6.6-2.2s-4.8.6-6.4,1.8c-1.6,1.2-2.4,2.8-2.4,4.7s.7,3.2,2.1,4.4c1.4,1.1,3.7,2.1,6.8,3,3.1.9,5.5,1.7,7.1,2.7,1.6.9,2.8,2,3.7,3.3.8,1.3,1.2,2.8,1.2,4.5,0,2.8-1.1,5-3.3,6.6-2.2,1.7-5.1,2.5-8.7,2.5s-4.7-.4-6.8-1.3c-2.1-.9-3.6-2.1-4.7-3.7-1.1-1.6-1.6-3.4-1.6-5.5h3c0,2.5.9,4.4,2.8,5.8s4.3,2.1,7.4,2.1,4.9-.6,6.6-1.8,2.5-2.8,2.5-4.8Z"/>
        <path class="cls-1" d="M1860.5,512.8h-3v-35h3v35Z"/>
        <path class="cls-1" d="M1919.9,508.6c-1,1.5-2.6,2.6-4.8,3.4-2.2.8-4.6,1.2-7.3,1.2s-5.2-.7-7.3-2c-2.1-1.3-3.8-3.2-4.9-5.6-1.2-2.4-1.8-5.2-1.8-8.3v-4.4c0-4.9,1.2-8.7,3.7-11.5,2.5-2.8,5.7-4.2,9.9-4.2s6.5.9,8.7,2.8,3.5,4.4,3.9,7.6h-3c-.4-2.6-1.5-4.5-3.1-5.8-1.7-1.3-3.8-2-6.5-2s-5.9,1.2-7.8,3.5c-1.9,2.3-2.9,5.6-2.9,9.8v4.1c0,2.7.5,5,1.4,7.1.9,2,2.2,3.6,3.9,4.7,1.7,1.1,3.6,1.7,5.8,1.7s4.7-.4,6.6-1.2c1.2-.5,2.1-1.1,2.6-1.8v-9h-9.4v-2.5h12.3v12.4Z"/>
        <path class="cls-1" d="M1978.9,512.8h-3l-20.1-29.9v29.9h-3v-35h3l20.1,30v-30h2.9v35Z"/>
        <path class="cls-1" d="M2068.8,504.2c0-1.9-.7-3.5-2-4.6-1.4-1.1-3.9-2.2-7.5-3.2-3.6-1-6.3-2.1-7.9-3.3-2.4-1.7-3.6-3.9-3.6-6.7s1.1-4.8,3.3-6.5,5-2.5,8.4-2.5,4.4.4,6.2,1.3c1.8.9,3.3,2.1,4.3,3.7s1.5,3.4,1.5,5.4h-3c0-2.4-.8-4.3-2.5-5.8-1.6-1.5-3.8-2.2-6.6-2.2s-4.8.6-6.4,1.8c-1.6,1.2-2.4,2.8-2.4,4.7s.7,3.2,2.1,4.4c1.4,1.1,3.7,2.1,6.8,3,3.1.9,5.5,1.7,7.1,2.7,1.6.9,2.8,2,3.7,3.3.8,1.3,1.2,2.8,1.2,4.5,0,2.8-1.1,5-3.3,6.6-2.2,1.7-5.1,2.5-8.7,2.5s-4.7-.4-6.8-1.3c-2.1-.9-3.6-2.1-4.7-3.7-1.1-1.6-1.6-3.4-1.6-5.5h3c0,2.5.9,4.4,2.8,5.8s4.3,2.1,7.4,2.1,4.9-.6,6.6-1.8,2.5-2.8,2.5-4.8Z"/>
        <path class="cls-1" d="M2113,496.9l10.7-19.1h3.4l-12.6,21.8v13.2h-3v-13.2l-12.6-21.8h3.5l10.6,19.1Z"/>
        <path class="cls-1" d="M2176.2,504.2c0-1.9-.7-3.5-2-4.6-1.4-1.1-3.9-2.2-7.5-3.2-3.6-1-6.3-2.1-7.9-3.3-2.4-1.7-3.6-3.9-3.6-6.7s1.1-4.8,3.3-6.5,5-2.5,8.4-2.5,4.4.4,6.2,1.3c1.8.9,3.3,2.1,4.3,3.7s1.5,3.4,1.5,5.4h-3c0-2.4-.8-4.3-2.5-5.8-1.6-1.5-3.8-2.2-6.6-2.2s-4.8.6-6.4,1.8c-1.6,1.2-2.4,2.8-2.4,4.7s.7,3.2,2.1,4.4c1.4,1.1,3.7,2.1,6.8,3,3.1.9,5.5,1.7,7.1,2.7,1.6.9,2.8,2,3.7,3.3.8,1.3,1.2,2.8,1.2,4.5,0,2.8-1.1,5-3.3,6.6-2.2,1.7-5.1,2.5-8.7,2.5s-4.7-.4-6.8-1.3c-2.1-.9-3.6-2.1-4.7-3.7-1.1-1.6-1.6-3.4-1.6-5.5h3c0,2.5.9,4.4,2.8,5.8s4.3,2.1,7.4,2.1,4.9-.6,6.6-1.8,2.5-2.8,2.5-4.8Z"/>
        <path class="cls-1" d="M2233.9,480.3h-12v32.5h-3v-32.5h-12v-2.5h26.9v2.5Z"/>
        <path class="cls-1" d="M2283.4,496h-16.4v14.3h18.8v2.5h-21.8v-35h21.6v2.5h-18.7v13.2h16.4v2.5Z"/>
        <path class="cls-1" d="M2320.6,477.8l12.9,30.9,12.9-30.9h3.9v35h-3v-15.2l.2-15.6-13,30.8h-2.3l-13-30.7.2,15.4v15.3h-3v-35h3.9Z"/>
      </g>
    </g>
    <g id="brand">
      <g>
        <g id="brand-2" data-name="brand">
          <path class="cls-1" d="M295.3,459.9s7.3,15.7,15,15c0,0,5.2,1,14-14l60.4,14.3s4.2-8.4-.7-16.7l-48.5-45,1-91.8,146.9,31.8s5.9.8,7.4-8c0,0,2.2-10.6-9.2-15.7l-145.8-94v-85.7s-5.5-39.3-26.3-40.5c0,0-24,5.9-25.6,49.1l-.8,76.3-150.6,99.5s-9.8,10.6,1.2,19.3l150.1-32.4-.2,91.1-48,47s-3.9,11,.8,14.9l59-14.6Z"/>
          <g>
            <path class="cls-1" d="M105.2,106.9"/>
            <path class="cls-1" d="M309,577.9c-112.9,0-215.4-66.7-261.1-170-2.2-4.9,0-10.7,5-12.8,4.9-2.2,10.7,0,12.8,5,42.6,96.2,138.1,158.4,243.3,158.4s265.9-119.3,265.9-265.9S455.6,26.6,309,26.6s-146.3,31.7-196.6,86.8c-2.8,3.1-7.2,4-11,2.4-3.8-1.6-6.2-5.5-5.9-9.6l5-71.8c.4-5.4,5-9.4,10.4-9,5.4.4,9.4,5,9,10.4l-3.2,45.9C169.1,34,237.8,7.1,309,7.1c157.4,0,285.4,128,285.4,285.4s-128,285.4-285.4,285.4Z"/>
            <path class="cls-1" d="M53.2,405.1c-3.9,0-7.5-2.3-9-6.1-10-24.9-16.5-51.2-19.1-78-.5-5.3,3.4-10.1,8.7-10.6,5.4-.5,10.1,3.4,10.6,8.7,2.5,25,8.5,49.5,17.8,72.7,2,5-.4,10.7-5.4,12.7-1.2.5-2.4.7-3.6.7ZM37.9,252.2c-.6,0-1.2,0-1.8-.2-5.3-1-8.8-6-7.8-11.3,4.9-26.5,13.5-52.1,25.5-76.2,2.4-4.8,8.3-6.7,13.1-4.3,4.8,2.4,6.7,8.3,4.3,13.1-11.3,22.4-19.3,46.3-23.8,71-.9,4.7-5,8-9.6,8Z"/>
            <path class="cls-1" d="M174.7,116.6h-69.4c-5.4,0-9.7-4.4-9.7-9.7s4.4-9.7,9.7-9.7h69.4c5.4,0,9.7,4.4,9.7,9.7s-4.4,9.7-9.7,9.7Z"/>
          </g>
        </g>
        <g>
          <path class="cls-1" d="M747.1,212.6c0-4.5.9-8.8,2.6-12.8,1.7-4,4.1-7.5,7.1-10.5,3-3,6.5-5.4,10.5-7.1,4-1.7,8.3-2.6,12.8-2.6s8.8.9,12.8,2.6c4,1.7,7.5,4.1,10.5,7.1,3,3,5.4,6.5,7.1,10.5,1.7,4,2.6,8.3,2.6,12.8s-.9,8.8-2.6,12.8c-1.7,4-4.1,7.5-7.1,10.5s-6.5,5.4-10.5,7.1c-4,1.7-8.3,2.6-12.8,2.6s-8.8-.9-12.8-2.6c-4-1.7-7.5-4.1-10.5-7.1-3-3-5.4-6.5-7.1-10.5-1.7-4-2.6-8.3-2.6-12.8ZM809.6,276.4v166.2h-58.6v-166.2h58.6Z"/>
          <path class="cls-1" d="M842.3,198.3h93.9c16.6,0,32.2,3.3,46.8,10,14.6,6.7,27.3,15.6,38.2,26.7,10.9,11.1,19.5,24.1,25.7,38.9,6.3,14.8,9.4,30.3,9.4,46.5s-3.1,31.4-9.2,46.2c-6.2,14.8-14.7,27.8-25.6,39-10.9,11.2-23.6,20.2-38.2,26.9-14.6,6.7-30.3,10-47.1,10h-93.9v-244.2ZM905.8,388.7h14.6c11,0,20.8-1.7,29.5-5.2,8.6-3.5,15.9-8.2,21.9-14.2,5.9-6,10.5-13.2,13.6-21.5,3.1-8.3,4.7-17.4,4.7-27.4s-1.6-18.8-4.9-27.2c-3.2-8.4-7.8-15.7-13.8-21.7-5.9-6-13.2-10.8-21.9-14.2-8.6-3.5-18.4-5.2-29.1-5.2h-14.6v136.7Z"/>
          <path class="cls-1" d="M1131.2,369.3c0,25.3,11.9,37.9,35.6,37.9s22.3-5.2,28.8-15.5h56.7c-11.4,38-40.1,57-85.8,57s-26.9-2.1-38.5-6.3c-11.7-4.2-21.6-10.2-30-18-8.3-7.8-14.7-17.1-19.3-27.9-4.5-10.8-6.8-22.9-6.8-36.3s2.2-26.3,6.5-37.4c4.3-11.1,10.5-20.6,18.5-28.3,8-7.8,17.7-13.8,29-18,11.3-4.2,24.1-6.3,38.4-6.3s26.7,2.1,37.9,6.3c11.2,4.2,20.7,10.3,28.5,18.3,7.8,8,13.7,17.8,17.8,29.3,4.1,11.6,6.2,24.6,6.2,39v6.2h-123.4ZM1199.9,335.3c-1.9-8.2-5.9-14.8-12-19.8-6-5-13.4-7.5-22-7.5s-16.5,2.4-22.2,7.1c-5.7,4.8-9.3,11.4-10.9,20.1h67Z"/>
          <path class="cls-1" d="M1333.6,525.4h-58.6v-249.1h58.6v18.5c12.5-15.8,29.6-23.6,51.2-23.6s22.9,2.3,33.2,7c10.3,4.6,19.2,11,26.7,18.9,7.6,8,13.4,17.4,17.7,28.2,4.2,10.8,6.3,22.3,6.3,34.7s-2.1,23.8-6.3,34.3c-4.2,10.6-10,19.9-17.5,27.9-7.5,8-16.2,14.2-26.4,18.8-10.2,4.5-21.2,6.8-33,6.8-20.7,0-38-7.1-51.8-21.4v99.1ZM1407.5,359.9c0-5.2-.9-10.1-2.8-14.7-1.8-4.6-4.5-8.7-7.9-12.1-3.5-3.5-7.5-6.2-12.1-8.3-4.6-2.1-9.7-3.1-15.1-3.1s-10,1-14.6,2.9c-4.5,1.9-8.5,4.6-11.8,8.1-3.3,3.5-6,7.5-8.1,12.1-2.1,4.6-3.1,9.6-3.1,14.7s1,10,2.9,14.6c1.9,4.5,4.6,8.5,8.1,11.8,3.5,3.3,7.5,6,12.1,8.1,4.6,2.1,9.6,3.1,14.7,3.1s10-1,14.6-2.9c4.5-1.9,8.5-4.6,11.8-8.1,3.3-3.5,6-7.5,8.1-12,2.1-4.5,3.1-9.3,3.1-14.3Z"/>
          <path class="cls-1" d="M1617.4,276.4h58.9v166.2h-58.9v-18.5c-12.5,15.8-29.5,23.6-50.9,23.6s-23.2-2.2-33.4-6.6c-10.2-4.4-19-10.6-26.6-18.6-7.6-8-13.4-17.4-17.7-28.2-4.2-10.8-6.3-22.6-6.3-35.3s2.1-23.2,6.2-33.8c4.1-10.7,9.8-20,17.2-28,7.3-8,16.1-14.3,26.2-18.9,10.1-4.6,21.4-7,33.7-7,20.7,0,37.9,7.2,51.5,21.7v-16.5ZM1543.5,358.9c0,5.4,1,10.4,2.9,15.1,1.9,4.6,4.6,8.7,7.9,12.1,3.3,3.5,7.3,6.2,12,8.1,4.6,1.9,9.7,2.9,15.1,2.9s10.1-1,14.7-2.9c4.6-1.9,8.6-4.6,12-8.1,3.3-3.5,6-7.5,8.1-12,2.1-4.5,3.1-9.4,3.1-14.6s-1-10.1-3.1-14.7c-2.1-4.6-4.8-8.7-8.1-12.1-3.3-3.5-7.3-6.2-12-8.1-4.6-1.9-9.6-2.9-14.7-2.9s-10.4,1-15.1,2.9c-4.6,1.9-8.6,4.6-12,8.1-3.3,3.5-6,7.4-7.9,11.8-1.9,4.4-2.9,9.2-2.9,14.4Z"/>
          <path class="cls-1" d="M1703.2,276.4h58.6v27.2c6.3-9.9,13.9-17.5,23-22.8,9.1-5.3,19.6-7.9,31.7-7.9h5c1.8,0,3.9.2,6.3.6v56c-7.8-3.9-16.2-5.8-25.3-5.8-13.6,0-23.8,4-30.6,12.1-6.8,8.1-10.2,19.9-10.2,35.5v71.3h-58.6v-166.2Z"/>
          <path class="cls-1" d="M1912.7,325.3v117.2h-58.6v-117.2h-19.4v-48.9h19.4v-49.9h58.6v49.9h33.4v48.9h-33.4Z"/>
          <path class="cls-1" d="M2013.8,276.4v93.6c0,20.5,9.9,30.8,29.8,30.8s29.8-10.3,29.8-30.8v-93.6h58.6v104.9c0,22.5-7.4,39.3-22.2,50.5-14.8,11.2-36.9,16.8-66.2,16.8s-51.4-5.6-66.2-16.8c-14.8-11.2-22.2-28.1-22.2-50.5v-104.9h58.6Z"/>
          <path class="cls-1" d="M2158.9,276.4h58.6v27.2c6.3-9.9,13.9-17.5,23-22.8,9.1-5.3,19.6-7.9,31.7-7.9h5c1.8,0,3.9.2,6.3.6v56c-7.8-3.9-16.2-5.8-25.3-5.8-13.6,0-23.8,4-30.6,12.1-6.8,8.1-10.2,19.9-10.2,35.5v71.3h-58.6v-166.2Z"/>
          <path class="cls-1" d="M2351.6,369.3c0,25.3,11.9,37.9,35.6,37.9s22.3-5.2,28.8-15.5h56.7c-11.4,38-40.1,57-85.8,57s-26.9-2.1-38.5-6.3c-11.7-4.2-21.6-10.2-30-18-8.3-7.8-14.7-17.1-19.3-27.9-4.5-10.8-6.8-22.9-6.8-36.3s2.2-26.3,6.5-37.4c4.3-11.1,10.5-20.6,18.5-28.3,8-7.8,17.6-13.8,29-18,11.3-4.2,24.1-6.3,38.4-6.3s26.7,2.1,37.9,6.3c11.2,4.2,20.7,10.3,28.5,18.3,7.8,8,13.7,17.8,17.8,29.3,4.1,11.6,6.2,24.6,6.2,39v6.2h-123.4ZM2420.3,335.3c-1.9-8.2-5.9-14.8-12-19.8-6-5-13.4-7.5-22-7.5s-16.5,2.4-22.2,7.1c-5.7,4.8-9.3,11.4-10.9,20.1h67Z"/>
        </g>
      </g>
    </g>
  </g>
</svg>