<?xml version="1.0" standalone="no"?>
<!DOCTYPE svg PUBLIC "-//W3C//DTD SVG 20010904//EN"
 "http://www.w3.org/TR/2001/REC-SVG-20010904/DTD/svg10.dtd">
<svg version="1.0" xmlns="http://www.w3.org/2000/svg"
 width="1080.000000pt" height="1080.000000pt" viewBox="0 0 1080.000000 1080.000000"
 preserveAspectRatio="xMidYMid meet">
<metadata>
Created by potrace 1.14, written by Peter Selinger 2001-2017
</metadata>
<g transform="translate(0.000000,1080.000000) scale(0.100000,-0.100000)"
fill="#000000" stroke="none">
<path d="M5128 10685 c-2 -2 -51 -6 -109 -10 -58 -3 -119 -8 -135 -10 -16 -2
-60 -6 -99 -10 -38 -3 -77 -8 -85 -10 -8 -2 -35 -7 -60 -10 -57 -8 -98 -14
-130 -20 -14 -3 -41 -7 -60 -10 -320 -50 -886 -223 -1205 -370 -220 -101 -410
-200 -575 -298 -263 -157 -624 -423 -808 -596 l-34 -31 7 108 c3 59 8 123 10
142 2 19 6 94 10 165 4 72 9 137 10 146 5 23 19 258 18 304 0 94 -69 165 -168
173 -45 4 -61 0 -99 -22 -77 -45 -90 -78 -101 -261 -3 -49 -8 -112 -10 -140
-3 -27 -7 -90 -10 -140 -3 -49 -7 -117 -10 -150 -3 -33 -7 -100 -10 -150 -3
-49 -8 -110 -10 -135 -2 -25 -7 -90 -10 -145 -4 -55 -8 -125 -11 -155 -15
-181 -13 -252 5 -289 23 -44 56 -76 96 -91 34 -14 1362 -18 1405 -5 68 20 130
101 130 167 -1 42 -23 103 -47 130 -10 11 -35 29 -55 39 -35 18 -66 19 -485
19 -402 1 -446 2 -428 16 11 8 38 32 60 52 22 21 76 67 120 102 44 36 82 68
85 71 15 18 234 174 355 254 447 293 952 517 1475 654 63 16 126 32 140 35 14
2 61 12 105 21 44 9 89 19 100 21 11 2 67 11 125 20 58 8 116 17 130 19 23 3
61 8 170 20 224 24 754 24 910 0 14 -2 55 -6 91 -10 36 -3 76 -8 90 -10 13 -2
44 -6 69 -9 25 -3 56 -8 70 -11 14 -3 77 -14 140 -25 63 -12 140 -27 170 -35
30 -8 66 -16 80 -19 162 -32 564 -165 755 -250 17 -8 55 -24 85 -37 90 -37
387 -191 500 -259 383 -230 688 -468 989 -771 87 -88 161 -168 226 -244 33
-38 63 -72 66 -75 11 -10 155 -196 205 -265 369 -508 639 -1087 793 -1700 11
-44 22 -91 25 -105 3 -14 15 -72 26 -130 12 -58 23 -116 25 -130 2 -14 10 -72
19 -130 19 -136 24 -178 31 -275 3 -44 8 -105 10 -135 6 -73 6 -478 0 -560 -7
-110 -17 -224 -21 -255 -2 -16 -6 -55 -10 -85 -4 -30 -8 -64 -10 -75 -3 -11
-7 -38 -9 -60 -3 -22 -10 -62 -15 -90 -5 -27 -12 -66 -15 -85 -22 -131 -93
-405 -156 -599 -90 -273 -245 -629 -372 -853 -111 -195 -210 -351 -321 -503
-48 -67 -188 -247 -211 -271 -5 -7 -28 -33 -50 -59 -63 -74 -81 -93 -189 -205
-173 -177 -237 -235 -481 -439 -11 -9 -65 -49 -120 -90 -55 -41 -116 -86 -135
-100 -19 -14 -39 -28 -45 -31 -5 -3 -41 -26 -80 -51 -372 -242 -837 -461
-1223 -575 -219 -65 -515 -134 -677 -158 -22 -4 -53 -8 -70 -11 -48 -7 -96
-13 -160 -20 -33 -3 -74 -8 -91 -10 -167 -23 -759 -23 -907 0 -12 2 -49 6 -82
10 -114 12 -140 16 -200 25 -33 5 -78 12 -100 15 -186 29 -485 104 -726 185
-494 164 -965 410 -1389 725 -250 186 -526 439 -721 659 -24 27 -54 60 -66 73
-11 13 -35 41 -51 61 -16 20 -50 62 -75 93 -208 259 -409 578 -570 909 -49
102 -98 194 -107 205 -10 11 -20 36 -23 56 -3 20 -29 98 -57 175 -65 171 -138
411 -176 577 -2 9 -6 25 -8 35 -32 129 -57 271 -86 497 -20 161 -35 203 -80
235 -53 37 -100 49 -151 36 -83 -22 -137 -80 -143 -157 -2 -33 13 -183 29
-289 14 -87 17 -105 21 -124 2 -11 9 -48 15 -81 17 -99 69 -324 96 -415 13
-47 26 -94 29 -104 19 -92 159 -472 189 -511 12 -16 25 -47 29 -68 16 -87 189
-430 344 -682 276 -449 662 -905 1037 -1224 61 -51 121 -103 135 -115 112 -96
440 -325 620 -433 428 -256 912 -459 1391 -582 86 -22 172 -43 190 -46 18 -3
35 -7 38 -9 3 -2 24 -7 46 -10 22 -4 47 -8 55 -11 8 -2 33 -6 55 -10 22 -3 78
-12 125 -20 137 -23 280 -39 455 -52 205 -15 736 -7 865 12 14 2 56 6 93 10
37 3 76 8 85 10 9 1 40 6 67 9 59 8 89 13 170 27 101 18 107 20 204 40 51 12
102 22 112 24 139 27 561 164 764 248 112 46 372 164 390 177 6 4 44 24 85 46
99 51 352 201 465 277 90 60 338 242 385 283 14 12 75 64 135 115 143 122 395
372 527 524 341 394 641 859 833 1295 26 58 53 119 60 135 45 97 117 296 175
479 39 124 123 455 134 526 3 19 12 69 20 110 8 41 20 113 26 160 6 47 13 95
15 108 2 13 7 53 10 90 4 37 8 81 10 97 23 186 24 772 1 950 -2 17 -7 61 -11
98 -3 37 -8 76 -10 85 -1 9 -6 42 -9 73 -6 47 -24 157 -51 304 -7 39 -43 200
-55 245 -22 81 -34 126 -36 137 -6 30 -99 317 -132 408 -155 423 -386 860
-656 1240 -82 115 -68 97 -187 245 -91 112 -107 131 -199 235 -70 79 -337 343
-420 415 -41 36 -77 67 -80 71 -3 3 -43 36 -90 73 -47 38 -94 76 -105 85 -124
102 -456 322 -625 414 -30 16 -59 33 -65 37 -15 11 -277 142 -370 185 -245
113 -617 241 -899 310 -147 36 -418 89 -506 99 -25 3 -65 8 -90 11 -25 3 -54
7 -65 10 -11 2 -58 7 -105 10 -47 4 -101 9 -120 12 -40 5 -637 12 -642 8z"/>
<path d="M5365 8778 c-184 -68 -357 -322 -411 -603 -2 -11 -6 -29 -8 -40 -2
-12 -7 -48 -11 -80 -4 -33 -9 -76 -11 -95 -3 -30 -6 -264 -17 -1330 l-2 -164
-95 -63 c-52 -35 -102 -68 -110 -74 -8 -5 -89 -59 -180 -118 -91 -60 -170
-114 -175 -119 -6 -5 -15 -11 -20 -13 -6 -2 -62 -38 -125 -80 -63 -42 -254
-168 -425 -281 -170 -112 -409 -270 -530 -350 -121 -80 -382 -252 -580 -383
-593 -391 -554 -363 -585 -419 -30 -53 -46 -127 -36 -173 8 -36 77 -128 96
-128 8 0 40 5 70 12 30 7 69 15 85 19 17 3 50 10 75 15 75 17 83 19 133 29 27
6 99 21 160 34 62 14 195 43 297 65 102 22 250 54 330 71 80 18 156 34 170 36
14 3 63 13 110 24 130 29 233 51 255 56 11 2 126 27 255 55 129 28 246 53 258
55 13 3 117 25 230 50 114 24 216 46 227 48 11 2 40 9 65 15 25 6 48 11 51 11
3 0 5 -379 4 -842 l-2 -842 -235 -230 c-130 -127 -328 -321 -440 -431 -113
-110 -210 -210 -216 -221 -11 -21 -25 -101 -25 -139 1 -60 5 -82 22 -105 l19
-24 139 33 c76 18 152 37 168 42 24 8 531 132 585 144 14 3 44 11 135 34 60
16 71 14 84 -16 22 -48 92 -147 130 -182 76 -71 141 -81 211 -31 37 27 121
126 153 180 12 22 27 40 34 40 17 0 130 -24 278 -60 72 -18 137 -33 145 -35 8
-2 47 -11 85 -20 39 -9 77 -18 85 -20 8 -2 65 -15 125 -30 61 -15 166 -40 235
-56 69 -16 132 -32 141 -34 25 -8 41 41 45 130 5 126 -12 155 -181 311 -77 71
-152 140 -166 154 -23 22 -167 155 -254 235 -16 15 -79 74 -140 130 -60 57
-130 120 -154 142 -41 37 -44 43 -43 89 0 27 4 301 7 609 14 1122 12 1048 23
1041 5 -3 19 -7 33 -10 23 -4 152 -32 194 -42 11 -3 40 -9 65 -14 25 -5 88
-19 140 -30 110 -24 134 -29 295 -63 66 -14 127 -28 135 -31 8 -3 32 -8 54
-11 21 -3 41 -7 45 -9 3 -2 22 -7 41 -10 19 -3 67 -13 105 -22 39 -9 79 -18
90 -20 11 -1 54 -10 95 -19 41 -9 83 -18 93 -20 10 -2 26 -6 35 -9 9 -3 32 -8
49 -11 18 -3 61 -12 96 -20 34 -8 80 -17 102 -21 22 -3 43 -8 46 -10 3 -1 50
-12 105 -24 55 -11 109 -22 120 -25 37 -8 530 -116 624 -136 144 -31 172 -33
208 -15 51 26 77 87 76 176 0 119 -39 174 -179 259 -38 23 -209 132 -380 242
-170 110 -359 232 -420 271 -175 112 -299 192 -462 299 -84 54 -157 99 -162
99 -5 0 -11 3 -13 8 -1 4 -59 43 -128 87 -69 43 -202 129 -295 191 -94 61
-175 113 -180 115 -6 2 -50 31 -100 63 -49 32 -121 79 -160 104 -68 44 -104
67 -290 187 -49 32 -92 60 -95 62 -3 3 -5 370 -6 816 l-1 812 -32 120 c-81
303 -192 489 -336 559 -62 31 -111 38 -150 24z"/>
<path d="M745 7854 c-64 -33 -80 -59 -185 -289 -148 -327 -307 -820 -355
-1105 -3 -19 -8 -42 -10 -50 -29 -108 5 -203 88 -247 41 -21 117 -19 164 3 44
22 90 84 98 134 18 106 95 432 125 525 88 274 161 462 276 704 59 123 67 172
42 231 -31 71 -91 110 -170 110 -24 0 -56 -7 -73 -16z"/>
</g>
</svg>
