<?xml version="1.0" encoding="UTF-8"?>
<svg id="Layer_1" xmlns="http://www.w3.org/2000/svg" version="1.1" viewBox="0 0 770 770">
  <!-- Generator: Adobe Illustrator 29.0.0, SVG Export Plug-In . SVG Version: 2.1.0 Build 186)  -->
  <defs>
    <style>
      .st0 {
        fill: #fff;
      }
    </style>
  </defs>
  <g id="brand">
    <path class="st0" d="M366.3,601.8s9.5,20.3,19.4,19.4c0,0,6.8,1.4,18.1-18.1l78.1,18.5s5.4-10.8-.9-21.7l-62.8-58.3,1.4-118.8,190.1,41.1s7.7,1,9.6-10.4c0,0,2.9-13.7-11.9-20.3l-188.8-121.6v-110.9s-7.1-50.9-34.1-52.4c0,0-31,7.6-33.1,63.6l-1,98.7-194.9,128.8s-12.7,13.7,1.5,24.9l194.2-41.9-.3,118-62.1,60.8s-5.1,14.2,1,19.3l76.4-18.9h0Z"/>
    <g>
      <path class="st0" d="M384.1,754.4c-146.1,0-278.8-86.4-338-220.1-2.8-6.4,0-13.8,6.4-16.6,6.4-2.8,13.8,0,16.6,6.4,55.1,124.6,178.8,205.1,314.9,205.1s344.2-154.4,344.2-344.2S573.9,40.8,384.1,40.8s-189.4,41-254.5,112.4c-3.6,4-9.3,5.2-14.3,3.1-4.9-2.1-8-7.1-7.6-12.5l6.5-93c.5-6.9,6.5-12.2,13.4-11.7,6.9.5,12.2,6.5,11.7,13.4l-4.1,59.4C202.9,50.4,291.9,15.6,384.1,15.6c203.7,0,369.4,165.7,369.4,369.4s-165.7,369.4-369.4,369.4h0Z"/>
      <path class="st0" d="M53,530.8c-5,0-9.7-3-11.7-7.9-13-32.3-21.3-66.3-24.8-101-.7-6.9,4.4-13.1,11.3-13.8,6.9-.7,13.1,4.4,13.8,11.3,3.2,32.4,11,64,23.1,94.1,2.6,6.5-.5,13.8-7,16.4-1.5.6-3.1.9-4.7.9h0ZM33.2,332.8c-.8,0-1.5,0-2.3-.2-6.8-1.3-11.4-7.8-10.1-14.7,6.3-34.3,17.4-67.5,33.1-98.6,3.1-6.2,10.7-8.7,16.9-5.6,6.2,3.1,8.7,10.7,5.6,16.9-14.6,29-25,59.9-30.8,91.9-1.1,6.1-6.4,10.3-12.4,10.3h0Z"/>
      <path class="st0" d="M210.2,157.3h-89.9c-7,0-12.6-5.6-12.6-12.6s5.6-12.6,12.6-12.6h89.9c7,0,12.6,5.6,12.6,12.6s-5.6,12.6-12.6,12.6Z"/>
    </g>
  </g>
</svg>